<mxfile host="app.diagrams.net" modified="2023-05-15T06:51:42.225Z" agent="Mozilla/5.0 (X11; Linux x86_64) AppleWebKit/537.36 (KHTML, like Gecko) Chrome/113.0.0.0 Safari/537.36 Edg/113.0.1774.42" version="21.3.0" etag="iXtdguBcrRIrz8z-c_qw" type="github">
  <diagram name="第 1 页" id="FfEKhpDbBPnWBdBkNUb6">
    <mxGraphModel>
      <root>
        <mxCell id="0" />
        <mxCell id="1" parent="0" />
      </root>
    </mxGraphModel>
  </diagram>
</mxfile>
